PathFileType	4	(X/Y/Z)	..\data\SUBJ01\dynamic\walk.trc
DataRate	CameraRate	NumFrames	NumMarkers	Units	OrigDataRate	OrigDataStartFrame	OrigNumFrames
100.000000	100.000000	7	21	mm	100.000000	13	337
Frame#	Time	C7			T10			CLAV			STRN			LSHO			RSHO			LASI			RASI			SACR			LTHI			LKNE			LTIB			LANK			LHEE			LTOE			RTHI			RKNE			RTIB			RANK			RHEE			RTOE			
		X1	Y1	Z1	X2	Y2	Z2	X3	Y3	Z3	X4	Y4	Z4	X5	Y5	Z5	X6	Y6	Z6	X7	Y7	Z7	X8	Y8	Z8	X9	Y9	Z9	X10	Y10	Z10	X11	Y11	Z11	X12	Y12	Z12	X13	Y13	Z13	X14	Y14	Z14	X15	Y15	Z15	X16	Y16	Z16	X17	Y17	Z17	X18	Y18	Z18	X19	Y19	Z19	X20	Y20	Z20	X21	Y21	Z21	

14	1.08	25.54504394531251	1348.164306640625	22.04595035062721	-44.29584121704102	1128.80908203125	22.04595035062721	171.3317108154297	1246.065185546875	21.95847742216747	227.9677429199219	1088.586791992188	22.04595035062721	68.94880676269533	1303.5732421875	-152.0801736032232	110.1021728515625	1281.290649414063	192.0803046712631	146.9775085449219	862.3823242187502	-120.859251464656	136.2431640625	847.6712036132815	160.859251464656	-36.45018386840821	868.1331787109377	20	127.6563262939453	587.2424926757814	-196.594804781495	192.7215728759766	428.8874816894532	-109.6938565403288	186.3081512451172	187.8781280517578	-159.4973066312762	204.4181060791016	61.94933319091798	-111.7562165806763	145.1277160644532	49.10738754272462	-65.58032746445977	311.7838134765626	47.35794830322266	-74.43897087404167	81.45735931396486	558.8264770507814	213.5914694104505	71.58353424072267	386.7258605957032	149.1302321308147	-110.5428924560547	242.9852600097657	196.2680469139518	-221.1907653808594	182.2254028320313	152.8880051473318	-252.0923919677735	216.5532989501954	105.7255595369172	-170.3407287597657	74.97805023193361	114.6938823150058	
15	1.09	36.69679260253907	1349.760498046875	22.04595035062721	-33.40999221801759	1130.509765625	22.04595035062721	182.4013671875	1247.575561523438	21.95847742216747	238.8239746093751	1089.963500976563	22.04595035062721	80.70506286621095	1305.50439453125	-152.0801736032232	121.0447158813477	1282.303100585938	192.0803046712631	157.4895629882813	864.3969726562502	-120.859251464656	146.9432220458985	848.760192871094	160.859251464656	-25.84153938293458	869.661071777344	20	135.5271148681641	588.1425170898439	-196.594804781495	197.7321166992188	428.8906250000001	-109.6938565403288	188.6216278076172	187.7661895751953	-159.4973066312762	204.6583557128907	61.93252563476564	-111.7562165806763	145.1925811767578	49.2095413208008	-65.58032746445977	311.8616027832032	47.34326171875001	-74.43897087404167	97.6509704589844	560.1732177734376	213.5914694104505	94.9726028442383	387.8179016113282	149.1302321308147	-90.14192199707033	248.6135559082032	196.2680469139518	-202.3240051269532	190.1434173583985	152.8880051473318	-231.7680664062501	224.6739349365235	105.7255595369172	-153.9871520996094	80.58837127685548	114.6938823150058	
16	1.1	47.70756149291993	1351.363891601563	22.04595035062721	-22.66059303283692	1132.221801757813	22.04595035062721	193.3198394775391	1249.085205078125	21.95847742216747	249.5225524902344	1091.3388671875	22.04595035062721	92.37324523925783	1307.46923828125	-152.0801736032232	131.7067108154297	1283.2333984375	192.0803046712631	167.8680877685547	866.2788696289065	-120.859251464656	157.5025634765625	849.952087402344	160.859251464656	-15.33804798126221	871.2357177734377	20	143.1854858398438	589.0186157226564	-196.594804781495	202.3849334716797	428.8633117675782	-109.6938565403288	190.7726135253907	187.6614227294922	-159.4973066312762	204.8876037597657	61.91366195678712	-111.7562165806763	145.2329406738282	49.30276107788087	-65.58032746445977	311.9160156250001	47.36217117309571	-74.43897087404167	113.5252227783203	561.8026123046876	213.5914694104505	118.3741531372071	389.4627075195314	149.1302321308147	-68.82519531250001	253.6840057373047	196.2680469139518	-182.1555938720703	196.981430053711	152.8880051473318	-210.6983184814454	231.4958953857422	105.7255595369172	-135.4735717773438	85.98121643066408	114.6938823150058	
17	1.11	58.57784652709962	1352.966064453125	22.04595035062721	-12.037184715271	1133.927368164063	22.04595035062721	204.0923004150391	1250.58935546875	21.95847742216747	260.0750122070313	1092.716674804688	22.04595035062721	103.9580154418946	1309.45849609375	-152.0801736032232	142.0922088623047	1284.101318359375	192.0803046712631	178.120361328125	868.031677246094	-120.859251464656	167.9602203369141	851.2446289062502	160.859251464656	-4.920971870422364	872.8408813476565	20	150.6996002197266	589.8975830078126	-196.594804781495	206.7240142822266	428.8184814453126	-109.6938565403288	192.7964172363282	187.5713653564453	-159.4973066312762	205.1198883056641	61.89413833618165	-111.7562165806763	145.2591705322266	49.40177154541017	-65.58032746445977	311.9551696777344	47.38834762573243	-74.43897087404167	129.1534729003907	563.6692504882814	213.5914694104505	141.6758422851563	391.6640625000001	149.1302321308147	-46.68626785278321	258.0714416503907	196.2680469139518	-160.7806243896485	202.5677337646485	152.8880051473318	-188.9953765869141	236.9114837646485	105.7255595369172	-114.9079971313477	90.90682983398439	114.6938823150058	
18	1.12	69.30870056152345	1354.555786132813	22.04595035062721	-1.52691388130188	1135.607177734375	22.04595035062721	214.7270660400391	1252.082641601563	21.95847742216747	270.4957885742188	1094.098388671875	22.04595035062721	115.4681472778321	1311.461547851563	-152.0801736032232	152.2101593017578	1284.930786132813	192.0803046712631	188.2587432861328	869.662048339844	-120.859251464656	178.3534545898438	852.6260986328127	160.859251464656	5.4277081489563	874.4558715820315	20	158.111801147461	590.7944335937501	-196.594804781495	210.7833709716797	428.7669982910157	-109.6938565403288	194.7093658447266	187.5016784667969	-159.4973066312762	205.3628692626954	61.87682342529298	-111.7562165806763	145.2801055908203	49.51734924316408	-65.58032746445977	311.9842224121094	47.40582656860352	-74.43897087404167	144.6533355712891	565.7291870117189	213.5914694104505	164.7951049804688	394.3924560546876	149.1302321308147	-23.81985855102539	261.6756896972657	196.2680469139518	-138.3099670410157	206.7801666259766	152.8880051473318	-166.7446899414063	240.8514404296876	105.7255595369172	-92.44146728515626	95.1557083129883	114.6938823150058	
19	1.13	79.90254211425783	1356.119018554688	22.04595035062721	8.884341239929201	1137.240600585938	22.04595035062721	225.2347564697266	1253.557006835938	21.95847742216747	280.8012695312501	1095.4814453125	22.04595035062721	126.9143753051758	1313.46435546875	-152.0801736032232	162.0742492675782	1285.743896484375	192.0803046712631	198.2991485595704	871.1765747070315	-120.859251464656	188.7157745361328	854.075622558594	160.859251464656	15.7240571975708	876.0562133789065	20	165.4408569335938	591.7130126953126	-196.594804781495	214.5893707275391	428.7171325683595	-109.6938565403288	196.5139617919922	187.4558868408203	-159.4973066312762	205.618637084961	61.86499786376955	-111.7562165806763	145.3023529052735	49.65522766113283	-65.58032746445977	312.0063476562501	47.40625000000001	-74.43897087404167	160.1601867675782	567.9481201171876	213.5914694104505	187.6698608398438	397.589324951172	149.1302321308147	-0.3219276666641236	264.4311523437501	196.2680469139518	-114.8633346557617	209.5460510253907	152.8880051473318	-144.0047149658203	243.2795715332032	105.7255595369172	-68.25007629394533	98.57172393798831	114.6938823150058	
20	1.14	90.36400604248048	1357.638549804688	22.04595035062721	19.21103477478028	1138.807006835938	22.04595035062721	235.6276855468751	1255.001220703125	21.95847742216747	291.0089111328126	1096.85693359375	22.04595035062721	138.3069763183594	1315.447143554688	-152.0801736032232	171.7029113769532	1286.556274414063	192.0803046712631	208.2592773437501	872.579772949219	-120.859251464656	199.0760040283204	855.5655517578127	160.859251464656	25.98157501220704	877.6151123046877	20	172.687484741211	592.6488037109376	-196.594804781495	218.1639404296876	428.6743774414064	-109.6938565403288	198.2058258056641	187.4354705810547	-159.4973066312762	205.8846282958985	61.86145019531251	-111.7562165806763	145.3301391601563	49.81602859497072	-65.58032746445977	312.0237426757813	47.38655471801759	-74.43897087404167	175.798324584961	570.3045654296876	213.5914694104505	210.2500915527344	401.1754150390626	149.1302321308147	23.71099853515625	266.3122558593751	196.2680469139518	-90.55916595458986	210.8387756347657	152.8880051473318	-120.809066772461	244.1874389648438	105.7255595369172	-42.51855087280274	101.0564270019532	114.6938823150058	
